<svg width="64" height="64" viewBox="0 0 64 64" fill="none" xmlns="http://www.w3.org/2000/svg">
<g clip-path="url(#clip0)">
<path fill-rule="evenodd" clip-rule="evenodd" d="M32 17.8571C33.3922 17.8706 35.4286 19 35.4286 19C35.8624 18.3283 36.5714 15.5714 36.5714 15.5714C36.5714 15.5714 38.6835 21.4026 36.9917 24.1369C44.5793 24.2043 48.2733 19.1378 45.7143 11C49.7508 11.0354 62.9247 15.6134 64 31.5714C58.6355 25.9284 50.9258 31.8702 50.2857 36.1429C44.7665 34.05 37.6557 39.1116 38.8572 45.2857C35.554 41.5696 32.6253 44.5439 32.0163 49.713V49.8584C32.0136 49.8336 32.0109 49.8089 32.0081 49.7842C32.0053 49.8085 32.0027 49.8328 32 49.8572V49.7142C31.3911 44.5452 28.4623 41.5709 25.1592 45.2869C26.3606 39.1128 19.2498 34.0512 13.7306 36.1441C13.0905 31.8714 5.3808 25.9296 0.0163269 31.5726C1.09161 15.6146 14.2655 11.0366 18.302 11.0012C15.743 19.139 19.4371 24.2056 27.0246 24.1381C25.3328 21.4038 27.4449 15.5726 27.4449 15.5726C27.4449 15.5726 28.1539 18.3295 28.5878 19.0012C28.5878 19.0012 30.6083 17.8806 32 17.8586V17.8571Z" fill="black"/>
<path fill-rule="evenodd" clip-rule="evenodd" d="M38.7459 31.1796C48.0787 26.793 63.1991 19.6861 63.9999 31.5714C58.6355 25.9286 52.64 34.7275 52 39C46.4808 36.9072 39.2985 41.826 40.5 48C37.1753 44.2599 32.5962 48.718 32.0047 53.9568V54.0022C32.0039 53.9946 32.0031 53.9869 32.0022 53.9793C32.0015 53.9862 32.0007 53.9931 32 54V53.959C31.4085 48.7202 26.8294 44.2621 23.5047 48.0022C24.7062 41.8283 17.5239 36.9094 12.0047 39.0022C11.3647 34.7297 5.36923 25.9308 0.00476074 31.5736C0.80564 19.6883 15.926 26.7952 25.2588 31.1818C28.4515 32.6824 30.9669 33.8647 32 33.8594V33.8572C33.03 33.8662 35.5483 32.6826 38.7459 31.1796Z" fill="black" fill-opacity="0.8"/>
</g>
<defs>
<clipPath id="clip0">
<rect width="64" height="64" fill="white"/>
</clipPath>
</defs>
</svg>
